<?xml version="1.0" standalone="no"?><!DOCTYPE svg PUBLIC "-//W3C//DTD SVG 1.1//EN" "http://www.w3.org/Graphics/SVG/1.1/DTD/svg11.dtd"><svg t="1619069814197" class="icon" viewBox="0 0 1024 1024" version="1.1" xmlns="http://www.w3.org/2000/svg" p-id="11106" xmlns:xlink="http://www.w3.org/1999/xlink" width="200" height="200"><defs><style type="text/css"></style></defs><path d="M512.105463 113.071426c108.253375 0 201.565553 78.170281 218.094444 183.368432a163.745966 163.745966 0 0 1 52.020629-8.108489 176.250654 176.250654 0 0 1 124.083017 50.893135 168.438739 168.438739 0 0 1 51.577045 121.849763c0 45.764449-18.327511 86.736414-47.681954 117.606964l42.158262 41.205901a184.951012 184.951012 0 0 1 41.522928 60.829645c9.862367 22.515342 14.433698 46.403617 14.433698 72.30783v51.579602c0 12.847282-4.12647 27.463783-12.358958 38.273397a50.968557 50.968557 0 0 1-37.629115 22.308251 19.587951 19.587951 0 0 1-3.662434 0.228822H914.304661v14.428585c0 17.109257-14.201041 31.063579-32.106701 31.063578H142.710937c-18.094854 0-33.015598-13.284474-33.015598-31.063578v-14.426028H69.336975a23.604485 23.604485 0 0 1-3.893813-0.228822c-16.274503-1.559571-28.890406-10.354526-37.629115-22.308252a68.332203 68.332203 0 0 1-12.127579-38.273397v-51.579602a181.169693 181.169693 0 0 1 14.433698-72.310386c17.417336-41.683999 51.830156-70.748259 83.475378-102.036824a170.096742 170.096742 0 0 1 4.148202-239.459284 177.049614 177.049614 0 0 1 124.273489-50.893135 165.905076 165.905076 0 0 1 51.830156 8.108489c16.481593-105.194316 109.603299-183.364597 218.258072-183.364597z m0 734.778909h99.533841v-143.49328a18.663714 18.663714 0 0 1 19.026762-18.68928c10.772542 0 19.492076 8.336033 19.492076 18.68928v84.032733h83.025403a15.7082 15.7082 0 0 0 1.820351-7.90012v-67.11267c0-90.561197-61.459865-132.682387-121.078926-191.704464a222.445902 222.445902 0 0 1-101.819507 24.799729 220.18836 220.18836 0 0 1-101.777322-24.799729c-60.104829 59.025913-121.101936 101.147102-121.101937 191.708299v67.11267a21.761123 21.761123 0 0 0 1.397222 7.90012h83.00495v-84.036568c0-10.354526 8.692689-18.689281 19.703002-18.68928a18.806888 18.806888 0 0 1 19.026761 18.68928c0 47.775272 0.232657 95.73846 0.232657 143.492001h99.51211z m0-364.696639c85.312347 0 156.401922-67.338935 156.401922-153.616426 0-84.698746-70.391603-153.845249-156.401922-153.845249-86.200791 0-156.596229 69.146503-156.596229 153.845249 0 86.277491 71.512704 153.616427 156.596229 153.616426zM174.583703 847.849056h93.333909a60.327259 60.327259 0 0 1-28.674367-22.07815 76.929016 76.929016 0 0 1-14.666356-45.281238v-67.11267a232.136972 232.136972 0 0 1 13.757458-79.979127 177.087964 177.087964 0 0 1-72.467621-16.877878c-26.581731 26.341403-61.903448 53.367995-76.57236 88.294707a126.427486 126.427486 0 0 0-9.184849 48.212463v49.104743h55.725248v-55.863308a19.600735 19.600735 0 0 1 19.490798-19.148203 19.397479 19.397479 0 0 1 19.25814 19.146925v101.57918z m119.703436-483.615175a111.670369 111.670369 0 0 0-18.814558-7.650845 115.305958 115.305958 0 0 0-33.460459-4.968894 112.217497 112.217497 0 0 0-78.666276 31.995486 110.02515 110.02515 0 0 0-32.570737 77.467196 106.444529 106.444529 0 0 0 32.570737 76.819079 111.147529 111.147529 0 0 0 78.666276 31.989094c12.825551 0 24.296065-1.351202 35.767857-5.404807 23.851204-28.606616 53.205646-54.054462 79.787376-79.729851-33.46046-33.346688-55.491312-75.237777-63.277659-120.519015z m555.340084 483.615175v-101.57918a19.062555 19.062555 0 0 1 19.047214-19.146925 19.447334 19.447334 0 0 1 19.492076 19.146925v55.863308h55.957905v-49.106021a122.233264 122.233264 0 0 0-9.418784-48.212463 115.561625 115.561625 0 0 0-28.189878-40.311065l-48.613861-47.983642a175.121883 175.121883 0 0 1-72.226016 16.881713 226.921359 226.921359 0 0 1 14.010569 79.979127v67.11267a76.940521 76.940521 0 0 1-14.686809 45.281238 62.076024 62.076024 0 0 1-28.91086 22.07815h93.544835z m-119.659973-483.615175c-8.279786 48.212464-28.444267 86.049948-63.767263 120.513901 26.856573 25.67539 56.401488 51.123236 80.023869 79.729851 3.471962 1.351202 10.354526 3.824783 13.524801 3.824783a117.369193 117.369193 0 0 0 22.475714 1.580024 111.004356 111.004356 0 0 0 78.433618-31.995485 105.533075 105.533075 0 0 0 32.570737-76.81908 109.054892 109.054892 0 0 0-32.570737-77.467195 112.07688 112.07688 0 0 0-78.433618-31.995486 117.305277 117.305277 0 0 0-33.925775 4.968894 99.545347 99.545347 0 0 0-18.327511 7.650844z" p-id="11107"></path></svg>