<?xml version="1.0" standalone="no"?><!DOCTYPE svg PUBLIC "-//W3C//DTD SVG 1.1//EN" "http://www.w3.org/Graphics/SVG/1.1/DTD/svg11.dtd"><svg t="1620308766406" class="icon" viewBox="0 0 1034 1024" version="1.1" xmlns="http://www.w3.org/2000/svg" p-id="35385" xmlns:xlink="http://www.w3.org/1999/xlink" width="201.953125" height="200"><defs><style type="text/css"></style></defs><path d="M595.969661 690.426483L812.365245 906.824067a44.479709 44.479709 0 1 0 62.897588-62.909589L658.872249 627.518894l62.904588-62.902588L938.174422 781.01089A133.439127 133.439127 0 1 1 749.455656 969.713655L533.014073 753.280071l0.251998-0.151999zM214.769155 246.326388q31.451794-31.451794 62.903588 0l146.76904 146.77504q31.451794 31.451794 0 62.903588t-62.902589 0L214.771155 309.236977q-31.452794-31.459794-0.002-62.910589z" p-id="35386"></path><path d="M130.904703 225.366525l-62.902588 62.904589-41.945725-41.944726a88.960418 88.960418 0 0 1 0-125.808177l62.905588-62.902588a88.959418 88.959418 0 0 1 125.797177 0l41.943725 41.942726-62.892588 62.895588-41.945726-41.945725-62.902588 62.904588 41.942725 41.945725z m62.905589-62.912588l62.902588-62.903588A133.439127 133.439127 0 1 1 68.002115 288.261114l62.904588-62.904589a44.479709 44.479709 0 0 0 62.903589-62.902588zM188.576326 846.072464l-31.451794-31.451794a44.479709 44.479709 0 1 0 62.902588 0 44.479709 44.479709 0 0 0-62.902588 0z" p-id="35387"></path><path d="M911.971593 185.580786l-3.145979 3.145979z m-66.048568-59.758609l3.14598-3.14598z m87.009431 80.719472l20.982863 20.982862 50.37267-50.37267a311.500962 311.500962 0 0 1-335.929802 440.757116L314.383503 971.883641A177.918836 177.918836 0 1 1 62.768149 720.268287l353.971684-353.973684A311.500962 311.500962 0 0 1 857.496949 30.359801l-50.37367 50.373671 20.985863 20.984862-8.957942 8.957942a222.506544 222.506544 0 0 0-314.84794 240.018429l8.150947 45.692701-386.793469 386.79347a88.960418 88.960418 0 0 0 125.808177 125.809177l386.793469-386.79447 45.693701 8.151947a222.506544 222.506544 0 0 0 240.041429-314.82494l8.957942-8.957942z" p-id="35388"></path><path d="M870.026867 101.719334L754.710622 217.03358a44.479709 44.479709 0 1 0 62.904588 62.902588l115.314246-115.315245 62.905588 62.902588-115.316245 115.316246A133.439127 133.439127 0 1 1 691.808034 154.128992L807.123279 38.813746l62.905588 62.902588z" p-id="35389"></path><path d="M807.123279 38.813746a44.479709 44.479709 0 1 0 62.903588 0 44.479709 44.479709 0 0 0-62.903588 0zM932.931456 164.621923a44.479709 44.479709 0 1 0 62.905588 0 44.479709 44.479709 0 0 0-62.905588 0z" p-id="35390"></path></svg>