<?xml version="1.0" standalone="no"?><!DOCTYPE svg PUBLIC "-//W3C//DTD SVG 1.1//EN" "http://www.w3.org/Graphics/SVG/1.1/DTD/svg11.dtd"><svg t="1620308131752" class="icon" viewBox="0 0 1024 1024" version="1.1" xmlns="http://www.w3.org/2000/svg" p-id="27587" xmlns:xlink="http://www.w3.org/1999/xlink" width="200" height="200"><defs><style type="text/css"></style></defs><path d="M872.448 537.0368h-339.6096c-24.3712 0-44.0832-19.712-44.0832-44.0832V153.344c0-26.112-22.5792-46.7968-48.5376-43.8784-218.112 24.4736-386.9184 212.0704-381.5936 437.9136 5.376 228.2496 191.5392 414.4128 419.7888 419.7888 225.8944 5.3248 413.44-163.4816 437.9136-381.5936 2.8672-25.9584-17.8176-48.5376-43.8784-48.5376z" fill="#FF623E" p-id="27588"></path><path d="M965.2224 439.7568c-22.3232-198.8608-180.1728-356.7104-379.0336-379.0336-25.9584-2.9184-48.5376 17.7664-48.5376 43.8784v374.1696c0 5.2736 4.2496 9.5232 9.5232 9.5232h374.1696c26.112 0 46.7968-22.5792 43.8784-48.5376z" fill="#FF623E" p-id="27589"></path></svg>